<svg xmlns="http://www.w3.org/2000/svg" viewBox="0 0 64 64" role="img" aria-label="Calendar icon">
  <rect width="64" height="64" rx="12" fill="#f28f99"/>
  <rect y="16" width="64" height="48" rx="8" fill="#f7ecec"/>
  <rect x="15" y="8" width="34" height="3.5" rx="1.75" fill="#fff4f4"/>
  <circle cx="15" cy="24" r="3" fill="#f5a481"/>
  <circle cx="25" cy="24" r="3" fill="#f5a481"/>
  <circle cx="35" cy="24" r="3" fill="#f5a481"/>
  <circle cx="45" cy="24" r="3" fill="#e58b99"/>
  <circle cx="15" cy="34" r="3" fill="#f5a481"/>
  <circle cx="35" cy="34" r="3" fill="#f5a481"/>
  <circle cx="45" cy="34" r="3" fill="#e58b99"/>
  <circle cx="15" cy="44" r="3" fill="#e58b99"/>
  <circle cx="25" cy="44" r="3" fill="#e58b99"/>
  <circle cx="35" cy="44" r="3" fill="#e58b99"/>
  <circle cx="45" cy="44" r="3" fill="#e58b99"/>
  <path d="M25 30c1.5-2 4.5-.6 4.5 1.5 0-2.1 3-3.5 4.5-1.5 1.6 2 .1 4.2-1.5 5.6L29.5 38l-3-2.4C24.9 34.2 23.4 32 25 30z" fill="#de5f6d"/>
  <path d="M48 64h16V48c-1.6 7.3-8.7 13.5-16 16z" fill="#ecbfc4"/>
</svg>
